<svg width="110" height="108" viewBox="0 0 110 108" fill="none" xmlns="http://www.w3.org/2000/svg">
<path d="M25.0426 82.6726L7.20264 95.6481" stroke="#FF8A00" stroke-width="3.46845" stroke-linecap="round" stroke-linejoin="round"/>
<path d="M2 90.4455L16.4409 74.5618" stroke="#FF8A00" stroke-width="3.46845" stroke-linecap="round" stroke-linejoin="round"/>
<path d="M84.7446 82.6726L102.585 95.6481" stroke="#FF8A00" stroke-width="3.46845" stroke-linecap="round" stroke-linejoin="round"/>
<path d="M107.788 90.4455L93.3467 74.5618" stroke="#FF8A00" stroke-width="3.46845" stroke-linecap="round" stroke-linejoin="round"/>
<path d="M78.3057 80.7737L83.0765 83.7531L94.0437 73.0234L78.3057 56.7686" stroke="#FF8A00" stroke-width="3.46845" stroke-linejoin="round"/>
<path d="M63.4707 50.5583L64.5806 56.316Z" fill="#FFE8DC"/>
<path d="M63.4707 50.5583L64.5806 56.316" stroke="#FF8A00" stroke-width="3.46845" stroke-linecap="round" stroke-linejoin="round"/>
<path d="M45.0576 56.1651L46.138 50.5583Z" fill="#FFE8DC"/>
<path d="M45.0576 56.1651L46.138 50.5583" stroke="#FF8A00" stroke-width="3.46845" stroke-linecap="round" stroke-linejoin="round"/>
<path d="M31.4812 80.7737L26.7104 83.7531L15.7432 73.0234L31.4812 56.7686" stroke="#FF8A00" stroke-width="3.46845" stroke-linejoin="round"/>
<path d="M78.306 105.864V56.5447C74.033 55.2583 69.6638 54.3164 65.2403 53.7283C64.975 56.3133 63.7597 58.7079 61.8299 60.448C59.9 62.1882 57.3929 63.1502 54.7944 63.1476C52.1958 63.145 49.6907 62.178 47.7643 60.434C45.8379 58.69 44.6274 56.293 44.3672 53.7075C40.0003 54.2908 35.69 55.2399 31.4819 56.5447V105.864" stroke="#FF8A00" stroke-width="3.46845" stroke-linecap="round" stroke-linejoin="round"/>
<path d="M71.8887 14.5591C72.69 16.4824 73.1026 18.5453 73.1026 20.6289V35.7166" stroke="#FF8A00" stroke-width="3.46845" stroke-linecap="round" stroke-linejoin="round"/>
<path d="M36.6846 35.7029V20.6221" stroke="#FF8A00" stroke-width="3.46845" stroke-linecap="round" stroke-linejoin="round"/>
<path d="M36.6846 37.4374C36.728 39.822 37.4688 42.1418 38.8156 44.1102C40.1624 46.0786 42.0562 47.6095 44.2631 48.5139L51.1341 53.2483C52.321 53.7622 53.6006 54.0274 54.8939 54.0274C56.1873 54.0274 57.4669 53.7622 58.6537 53.2483L65.5247 48.5139C67.7316 47.6095 69.6254 46.0786 70.9722 44.1102C72.319 42.1418 73.0598 39.822 73.1033 37.4374V30.5005C73.0598 32.8851 72.319 35.2049 70.9722 37.1733C69.6254 39.1417 67.7316 40.6726 65.5247 41.577L58.6537 44.5772C57.4669 45.0911 56.1873 45.3562 54.8939 45.3562C53.6006 45.3562 52.321 45.0911 51.1341 44.5772L44.2631 41.577C42.0562 40.6726 40.1624 39.1417 38.8156 37.1733C37.4688 35.2049 36.728 32.8851 36.6846 30.5005V37.4374Z" stroke="#FF8A00" stroke-width="3.46845" stroke-linecap="round" stroke-linejoin="round"/>
<path d="M73.8247 28.0134H74.8375C75.7574 28.0134 76.6396 28.3789 77.2901 29.0293C77.9405 29.6798 78.3059 30.562 78.3059 31.4819C78.3059 32.4018 77.9405 33.284 77.2901 33.9344C76.6396 34.5849 75.7574 34.9503 74.8375 34.9503H73.8247" stroke="#FF8A00" stroke-width="3.46845" stroke-linecap="round" stroke-linejoin="round"/>
<path d="M36.1297 28.0134H34.9504C34.0305 28.0134 33.1483 28.3789 32.4978 29.0293C31.8474 29.6798 31.4819 30.562 31.4819 31.4819C31.4819 32.4018 31.8474 33.284 32.4978 33.9344C33.1483 34.5849 34.0305 34.9503 34.9504 34.9503H36.0672" stroke="#FF8A00" stroke-width="3.46845" stroke-linecap="round" stroke-linejoin="round"/>
<path d="M40.4704 2C39.4663 2 38.5034 2.39886 37.7934 3.10884C37.0834 3.81881 36.6846 4.78175 36.6846 5.78581V22.8107C38.5243 22.8107 40.2888 22.0798 41.5897 20.7789C42.8906 19.478 43.6215 17.7136 43.6215 15.8738H65.0911C68.136 15.8738 71.0561 14.6642 73.2091 12.5112C75.3621 10.3582 76.5717 7.43806 76.5717 4.39323V2H40.4704Z" stroke="#FF8A00" stroke-width="3.46845" stroke-linecap="round" stroke-linejoin="round"/>
<path d="M69.6348 8.93701H74.8374" stroke="#FF8A00" stroke-width="3.46845" stroke-linecap="round" stroke-linejoin="round"/>
</svg>
