<svg width="108" height="101" viewBox="0 0 108 101" fill="none" xmlns="http://www.w3.org/2000/svg">
<path d="M91.0869 18.1104V20.6648" stroke="#C6C6C6" stroke-width="3.67516" stroke-linecap="round" stroke-linejoin="round"/>
<path d="M91.0869 28.3267V30.8811" stroke="#C6C6C6" stroke-width="3.67516" stroke-linecap="round" stroke-linejoin="round"/>
<path d="M84.5879 24.4961H87.1881" stroke="#C6C6C6" stroke-width="3.67516" stroke-linecap="round" stroke-linejoin="round"/>
<path d="M94.9863 24.4961H97.5865" stroke="#C6C6C6" stroke-width="3.67516" stroke-linecap="round" stroke-linejoin="round"/>
<path d="M29.5275 17.2747C32.0647 17.2747 34.1215 15.2541 34.1215 12.7615C34.1215 10.2689 32.0647 8.24829 29.5275 8.24829C26.9904 8.24829 24.9336 10.2689 24.9336 12.7615C24.9336 15.2541 26.9904 17.2747 29.5275 17.2747Z" stroke="#C6C6C6" stroke-width="3.67516" stroke-linecap="round" stroke-linejoin="round"/>
<path d="M57.0918 30.939C58.1767 30.939 59.0562 30.075 59.0562 29.0092C59.0562 27.9434 58.1767 27.0793 57.0918 27.0793C56.0069 27.0793 55.1274 27.9434 55.1274 29.0092C55.1274 30.075 56.0069 30.939 57.0918 30.939Z" fill="black"/>
<path d="M77.3052 7.47029C78.3901 7.47029 79.2696 6.60627 79.2696 5.54044C79.2696 4.47462 78.3901 3.6106 77.3052 3.6106C76.2203 3.6106 75.3408 4.47462 75.3408 5.54044C75.3408 6.60627 76.2203 7.47029 77.3052 7.47029Z" fill="black"/>
<path d="M1.96437 3.85969C3.04927 3.85969 3.92874 2.99567 3.92874 1.92985C3.92874 0.864021 3.04927 0 1.96437 0C0.879479 0 0 0.864021 0 1.92985C0 2.99567 0.879479 3.85969 1.96437 3.85969Z" fill="black"/>
<path d="M46.1138 93.0967H80.9837" stroke="#C6C6C6" stroke-width="3.67516" stroke-linecap="round" stroke-linejoin="round"/>
<path d="M96.7004 93.0967H105.787V83.3482C105.787 82.1033 105.284 80.9094 104.388 80.0292C103.492 79.149 102.277 78.6544 101.01 78.6544H100.275V62.4069H105.787V48.4196C105.787 45.9048 104.77 43.4932 102.959 41.7151C101.149 39.9371 98.6942 38.9382 96.1345 38.9382H12.5338C9.97433 38.9387 7.51986 39.9378 5.71005 41.7158C3.90025 43.4938 2.8833 45.9051 2.88281 48.4196V93.0967H30.6303" stroke="#C6C6C6" stroke-width="3.67516" stroke-linecap="round" stroke-linejoin="round"/>
<path d="M10.2334 46.1597H21.2589V55.1861H10.2334V46.1597Z" stroke="#C6C6C6" stroke-width="3.67516" stroke-linecap="round" stroke-linejoin="round"/>
<path d="M28.6089 46.1597H39.6344V55.1861H28.6089V46.1597Z" stroke="#C6C6C6" stroke-width="3.67516" stroke-linecap="round" stroke-linejoin="round"/>
<path d="M46.9849 46.1597H58.0103V55.1861H46.9849V46.1597Z" stroke="#C6C6C6" stroke-width="3.67516" stroke-linecap="round" stroke-linejoin="round"/>
<path d="M65.3604 46.1597H76.3858V55.1861H65.3604V46.1597Z" stroke="#C6C6C6" stroke-width="3.67516" stroke-linecap="round" stroke-linejoin="round"/>
<path d="M83.7363 46.1597H94.7618V55.1861H83.7363V46.1597Z" stroke="#C6C6C6" stroke-width="3.67516" stroke-linecap="round" stroke-linejoin="round"/>
<path d="M10.4502 92.5372V69.6282H21.2588V92.4614" stroke="#C6C6C6" stroke-width="3.67516" stroke-linecap="round" stroke-linejoin="round"/>
<path d="M28.6089 69.6282H78.2235V78.6546H28.6089V69.6282Z" stroke="#C6C6C6" stroke-width="3.67516" stroke-linecap="round" stroke-linejoin="round"/>
<path d="M100.274 78.6545H85.5737V62.407" stroke="#C6C6C6" stroke-width="3.67516" stroke-linejoin="round"/>
<path d="M88.9255 98.9999C92.9119 98.9999 96.1435 95.8251 96.1435 91.9088C96.1435 87.9924 92.9119 84.8176 88.9255 84.8176C84.9391 84.8176 81.7075 87.9924 81.7075 91.9088C81.7075 95.8251 84.9391 98.9999 88.9255 98.9999Z" stroke="#C6C6C6" stroke-width="3.67516" stroke-linecap="round" stroke-linejoin="round"/>
<path d="M88.9266 93.7646C89.9699 93.7646 90.8157 92.9338 90.8157 91.9088C90.8157 90.8839 89.9699 90.053 88.9266 90.053C87.8833 90.053 87.0376 90.8839 87.0376 91.9088C87.0376 92.9338 87.8833 93.7646 88.9266 93.7646Z" fill="black"/>
<path d="M38.446 98.9997C42.4324 98.9997 45.6641 95.8249 45.6641 91.9085C45.6641 87.9922 42.4324 84.8174 38.446 84.8174C34.4596 84.8174 31.228 87.9922 31.228 91.9085C31.228 95.8249 34.4596 98.9997 38.446 98.9997Z" stroke="#C6C6C6" stroke-width="3.67516" stroke-linecap="round" stroke-linejoin="round"/>
<path d="M38.4458 93.7319C39.4708 93.7319 40.3018 92.9155 40.3018 91.9085C40.3018 90.9015 39.4708 90.0852 38.4458 90.0852C37.4208 90.0852 36.5898 90.9015 36.5898 91.9085C36.5898 92.9155 37.4208 93.7319 38.4458 93.7319Z" fill="black"/>
<path d="M39.6343 69.6282V78.6546" stroke="#C6C6C6" stroke-width="3.67516" stroke-linecap="round" stroke-linejoin="round"/>
<path d="M50.6602 69.6282V78.6546" stroke="#C6C6C6" stroke-width="3.67516" stroke-linecap="round" stroke-linejoin="round"/>
<path d="M61.6855 69.6282V78.6546" stroke="#C6C6C6" stroke-width="3.67516" stroke-linecap="round" stroke-linejoin="round"/>
<path d="M100.275 62.407H2.88281" stroke="#C6C6C6" stroke-width="3.67516" stroke-linejoin="round"/>
</svg>
