<svg width="113" height="35" viewBox="0 0 113 35" fill="none" xmlns="http://www.w3.org/2000/svg">
<path d="M7.73238 3.664C6.70838 3.824 5.79638 4.032 4.99638 4.288C4.22838 4.512 3.52438 4.72 2.88438 4.912C2.34038 5.072 1.87638 5.072 1.49238 4.912C1.14038 4.72 0.916375 4.448 0.820375 4.096C0.756375 3.744 0.804375 3.392 0.964375 3.04C1.12438 2.688 1.39638 2.416 1.78038 2.224C2.58038 1.808 3.54038 1.488 4.66038 1.264C5.81238 1.008 6.90038 0.831998 7.92438 0.735999C8.66038 0.671998 9.26838 0.735998 9.74838 0.927999C10.2604 1.088 10.6444 1.328 10.9004 1.648C11.1564 1.968 11.2844 2.336 11.2844 2.752C11.3164 3.136 11.2364 3.52 11.0444 3.904C10.6924 4.576 10.3564 5.2 10.0364 5.776C9.71638 6.352 9.42838 6.912 9.17238 7.456C9.94038 7.36 10.9164 7.264 12.1004 7.168C13.2844 7.072 14.5004 7.008 15.7484 6.976C16.9964 6.912 18.1804 6.912 19.3004 6.976C20.4524 7.04 21.3964 7.2 22.1324 7.456C22.7084 7.712 23.0924 7.968 23.2844 8.224C23.4764 8.448 23.5404 8.688 23.4764 8.944C23.4124 9.232 23.2044 9.488 22.8524 9.712C22.5004 9.904 22.0524 10.016 21.5084 10.048C19.9404 10.08 18.2604 10.096 16.4684 10.096C14.6764 10.096 12.9324 10.144 11.2364 10.24C10.5644 10.24 9.98838 10.112 9.50838 9.856C9.06038 9.568 8.69238 9.248 8.40438 8.896C7.95638 9.824 7.52438 10.752 7.10838 11.68C6.69238 12.576 6.26038 13.584 5.81238 14.704C5.55638 15.184 5.28438 15.568 4.99638 15.856C4.70838 16.112 4.29238 16.176 3.74838 16.048C3.36438 15.952 3.07638 15.664 2.88438 15.184C2.72438 14.704 2.70838 14.272 2.83638 13.888C3.34838 12.16 4.00438 10.48 4.80438 8.848C5.60438 7.184 6.58038 5.456 7.73238 3.664ZM19.8284 15.904C20.2124 15.904 20.5804 15.936 20.9324 16C21.2844 16.032 21.6044 16.096 21.8924 16.192C22.1804 16.288 22.4044 16.432 22.5644 16.624C22.7244 16.784 22.7884 17.008 22.7564 17.296C22.7244 17.616 22.5484 17.92 22.2284 18.208C21.9404 18.464 21.4764 18.624 20.8364 18.688C20.2924 18.752 19.7164 18.816 19.1084 18.88C18.5324 18.912 17.9244 18.976 17.2844 19.072C17.4444 20.544 17.5244 22.064 17.5244 23.632C17.5244 25.168 17.3484 26.656 16.9964 28.096C16.8684 28.448 16.6284 28.704 16.2764 28.864C15.9244 29.024 15.5724 29.072 15.2204 29.008C14.9004 28.944 14.6124 28.752 14.3564 28.432C14.1004 28.112 14.0044 27.776 14.0684 27.424C14.1964 25.92 14.2924 24.528 14.3564 23.248C14.4204 21.968 14.4044 20.72 14.3084 19.504C12.9004 19.728 11.5884 19.952 10.3724 20.176C9.18838 20.368 8.26038 20.528 7.58838 20.656C7.36438 20.688 7.10838 20.72 6.82037 20.752C6.53238 20.752 6.24438 20.72 5.95638 20.656C5.70038 20.56 5.46038 20.432 5.23638 20.272C5.04438 20.112 4.91638 19.872 4.85238 19.552C4.78838 19.232 4.88438 18.944 5.14038 18.688C5.39638 18.4 5.70038 18.192 6.05238 18.064C6.88438 17.808 7.98838 17.552 9.36438 17.296C10.7404 17.04 12.1324 16.816 13.5404 16.624C14.9484 16.4 16.2284 16.224 17.3804 16.096C18.5644 15.968 19.3804 15.904 19.8284 15.904ZM7.97238 25.312C8.54838 25.248 8.99638 25.424 9.31638 25.84C9.66838 26.224 9.87638 26.688 9.94038 27.232C9.90838 27.904 9.87638 28.608 9.84438 29.344C9.84438 30.08 9.87638 30.832 9.94038 31.6C12.0524 31.184 14.1804 30.656 16.3244 30.016C18.5004 29.376 20.7884 28.688 23.1884 27.952C23.6684 27.76 24.1324 27.68 24.5804 27.712C25.0284 27.712 25.3324 27.888 25.4924 28.24C25.7484 28.72 25.7324 29.152 25.4444 29.536C25.1884 29.888 24.7884 30.192 24.2444 30.448C22.0044 31.376 19.7164 32.24 17.3804 33.04C15.0764 33.808 12.9004 34.384 10.8524 34.768C10.2124 34.896 9.62038 34.88 9.07638 34.72C8.56438 34.592 8.13238 34.368 7.78038 34.048C7.42838 33.76 7.15638 33.424 6.96438 33.04C6.77238 32.624 6.67638 32.224 6.67638 31.84C6.64438 30.88 6.64438 30.016 6.67638 29.248C6.70838 28.48 6.77238 27.632 6.86838 26.704C6.86838 26.352 6.98038 26.048 7.20438 25.792C7.42838 25.504 7.68438 25.344 7.97238 25.312ZM59.5386 8.272C59.6666 7.536 59.8266 6.928 60.0186 6.448C60.2426 5.936 60.6266 5.68 61.1706 5.68C61.7466 5.68 62.1626 5.84 62.4186 6.16C62.6746 6.48 62.7706 6.896 62.7066 7.408C62.4186 10.192 62.1626 12.816 61.9386 15.28C61.7146 17.744 61.6346 20.24 61.6986 22.768C61.7306 23.632 61.6026 24.192 61.3146 24.448C61.0266 24.704 60.6586 24.832 60.2106 24.832C59.9546 24.832 59.7306 24.704 59.5386 24.448C59.3786 24.192 59.2346 23.872 59.1066 23.488C59.0106 23.104 58.9306 22.704 58.8666 22.288C58.8026 21.84 58.7706 21.44 58.7706 21.088C58.7066 18.784 58.7226 16.592 58.8186 14.512C58.9466 12.4 59.1866 10.32 59.5386 8.272ZM51.8106 8.224C51.9066 8.672 51.8586 9.168 51.6666 9.712C51.4746 10.224 51.1066 10.832 50.5626 11.536C49.6346 12.688 48.6746 14.112 47.6826 15.808C46.6906 17.504 45.8906 19.264 45.2826 21.088C44.9306 22.144 44.3386 22.544 43.5066 22.288C43.0266 22.128 42.7706 21.824 42.7386 21.376C42.7066 20.896 42.7066 20.528 42.7386 20.272C42.8026 19.568 43.0106 18.752 43.3626 17.824C43.7466 16.896 44.1946 15.952 44.7066 14.992C45.2506 14.032 45.8426 13.088 46.4826 12.16C47.1226 11.232 47.7306 10.4 48.3066 9.664C47.5706 9.824 46.8506 10.048 46.1466 10.336C45.4746 10.624 44.8346 10.96 44.2266 11.344C43.6506 11.696 43.1066 12.064 42.5946 12.448C42.0826 12.8 41.6346 13.136 41.2506 13.456C41.0906 13.584 40.8026 13.648 40.3866 13.648C39.9706 13.648 39.6666 13.552 39.4746 13.36C39.3146 13.2 39.1706 12.928 39.0426 12.544C38.9146 12.128 39.0266 11.728 39.3786 11.344C40.3706 10.224 41.6826 9.232 43.3146 8.368C44.9786 7.504 46.8826 6.944 49.0266 6.688C49.6026 6.624 50.1626 6.704 50.7066 6.928C51.2826 7.152 51.6506 7.584 51.8106 8.224ZM53.9706 25.744C54.1306 26.128 54.1786 26.512 54.1146 26.896C54.0826 27.248 53.9386 27.472 53.6826 27.568C53.3306 27.696 52.9626 27.664 52.5786 27.472C52.2266 27.28 51.9386 27.056 51.7146 26.8C51.3306 26.256 50.9626 25.6 50.6106 24.832C50.2906 24.064 50.0026 23.28 49.7466 22.48C49.4906 21.648 49.2666 20.832 49.0746 20.032C48.9146 19.2 48.8026 18.448 48.7386 17.776C48.6746 17.328 48.6906 16.912 48.7866 16.528C48.9146 16.144 49.0746 15.904 49.2666 15.808C49.7786 15.584 50.2426 15.648 50.6586 16C51.0746 16.352 51.3146 16.736 51.3786 17.152C51.5706 18.72 51.9066 20.208 52.3866 21.616C52.8666 23.024 53.3946 24.4 53.9706 25.744ZM91.5348 13.312C91.4068 14.016 91.2148 14.784 90.9588 15.616C90.7348 16.448 90.4628 17.312 90.1428 18.208C89.8548 19.072 89.5508 19.936 89.2308 20.8C88.9428 21.664 88.6548 22.464 88.3668 23.2C88.8788 23.008 89.4548 22.752 90.0948 22.432C90.7668 22.112 91.4388 21.76 92.1108 21.376C92.8148 20.992 93.4868 20.608 94.1268 20.224C94.7988 19.84 95.3748 19.488 95.8548 19.168C96.4948 18.784 97.0068 18.848 97.3908 19.36C97.5508 19.584 97.5668 19.968 97.4388 20.512C97.3428 21.024 96.9588 21.552 96.2868 22.096C95.8068 22.448 95.2308 22.832 94.5588 23.248C93.9188 23.664 93.1988 24.096 92.3988 24.544C91.6308 24.96 90.7988 25.376 89.9028 25.792C89.0068 26.208 88.0628 26.576 87.0708 26.896C86.7508 27.024 86.3828 27.104 85.9668 27.136C85.5508 27.168 85.1828 27.056 84.8628 26.8C84.5108 26.48 84.3508 26.112 84.3828 25.696C84.4148 25.28 84.5268 24.848 84.7188 24.4C84.9108 23.856 85.1988 23.072 85.5828 22.048C85.9988 20.992 86.4148 19.888 86.8308 18.736C87.2468 17.584 87.6308 16.496 87.9828 15.472C88.3348 14.416 88.5588 13.6 88.6548 13.024C88.6868 12.832 88.5588 12.768 88.2708 12.832C87.9828 12.864 87.6308 12.96 87.2148 13.12C86.8308 13.248 86.3988 13.424 85.9188 13.648C85.4708 13.84 85.1028 14.016 84.8148 14.176C84.6868 14.24 84.5108 14.304 84.2868 14.368C84.0948 14.432 83.8868 14.432 83.6628 14.368C83.6948 15.744 83.7428 17.088 83.8068 18.4C83.8708 19.712 83.9348 21.024 83.9988 22.336C83.9988 23.328 83.6628 23.824 82.9908 23.824C82.7668 23.792 82.4628 23.712 82.0788 23.584C81.7268 23.424 81.4868 23.008 81.3588 22.336C81.0068 20.416 80.7988 18.384 80.7348 16.24C80.6708 14.064 80.6548 11.824 80.6868 9.52C80.7508 9.04 80.8468 8.656 80.9748 8.368C81.1028 8.08 81.3908 7.952 81.8388 7.984C82.3508 8.016 82.7828 8.24 83.1348 8.656C83.5188 9.072 83.6948 9.504 83.6628 9.952C83.6628 10.208 83.6468 10.448 83.6148 10.672C83.6148 10.896 83.6148 11.12 83.6148 11.344C84.3508 10.896 85.2308 10.48 86.2548 10.096C87.2788 9.712 88.2868 9.552 89.2788 9.616C89.9508 9.648 90.4468 9.792 90.7668 10.048C91.1188 10.272 91.3588 10.576 91.4868 10.96C91.6468 11.312 91.7108 11.696 91.6788 12.112C91.6788 12.528 91.6308 12.928 91.5348 13.312ZM103.583 21.952C103.583 22.496 103.439 22.88 103.151 23.104C102.863 23.296 102.527 23.376 102.143 23.344C101.887 23.312 101.567 23.184 101.183 22.96C100.831 22.736 100.623 22.368 100.559 21.856C100.335 20.512 100.143 19.12 99.9828 17.68C99.8228 16.24 99.7108 14.816 99.6468 13.408C99.5828 11.968 99.5348 10.592 99.5028 9.28C99.5028 7.968 99.5348 6.768 99.5988 5.68C99.5988 5.392 99.6788 5.024 99.8388 4.576C100.031 4.096 100.303 3.856 100.655 3.856C101.167 3.92 101.599 4.208 101.951 4.72C102.303 5.232 102.511 5.664 102.575 6.016C102.543 7.104 102.543 8.176 102.575 9.232C102.607 10.256 102.655 11.28 102.719 12.304C103.359 12.08 104.047 11.888 104.783 11.728C105.551 11.568 106.287 11.44 106.991 11.344C107.727 11.248 108.399 11.184 109.007 11.152C109.615 11.088 110.111 11.04 110.495 11.008C111.487 10.976 112.079 11.36 112.271 12.16C112.335 12.416 112.287 12.72 112.127 13.072C111.999 13.392 111.727 13.6 111.311 13.696C110.799 13.856 110.255 13.984 109.679 14.08C109.103 14.176 108.511 14.272 107.903 14.368C107.295 14.432 106.703 14.48 106.127 14.512C105.583 14.512 105.071 14.512 104.591 14.512C103.887 14.512 103.311 14.4 102.863 14.176C103.055 16.768 103.295 19.36 103.583 21.952Z" fill="#FF8A00"/>
</svg>
